<?xml version="1.0" encoding="utf-8"?>
<!-- Generator: Adobe Illustrator 27.5.0, SVG Export Plug-In . SVG Version: 6.00 Build 0)  -->
<svg version="1.1" id="Layer_1" xmlns="http://www.w3.org/2000/svg" xmlns:xlink="http://www.w3.org/1999/xlink" x="0px" y="0px"
	 viewBox="0 0 4000 4000" style="enable-background:new 0 0 4000 4000;" xml:space="preserve">
<g>
	<rect style="fill-rule:evenodd;clip-rule:evenodd;fill:#FFFFFF;" width="4000" height="4000"/>
	<path style="fill-rule:evenodd;clip-rule:evenodd;" d="M2617.59,1216.781l-183.906,124.128l-611.48-432.17l-9.198,317.235
		l629.871,326.433l-248.271,119.537l-570.1-363.213l-9.198,285.053l625.28,340.223l-266.663,119.537l-593.088-381.6l4.592,285.047
		l634.473,354.025l-174.713,110.342l-666.656-395.4l4.602,289.65l643.663,349.417l533.33-18.387l32.181-841.365
		c0,0,19.81,0.972,52.29,0h175.266c235.162,0,427.568-192.407,427.568-427.578c0-235.167-192.406-427.578-427.568-427.578H2414.89
		c-41.476,1.239-175.38,0-211.086,0L2617.59,1216.781z"/>
	<path style="fill-rule:evenodd;clip-rule:evenodd;" d="M2590.69,2805.334v179.456h-43.715v-107.622l-40.133,107.622h-35.278
		l-40.393-107.876v107.876h-43.715v-179.456h51.643l50.357,124.243l49.852-124.243H2590.69z M2250.179,2805.334v107.372
		c0,10.735,2.645,18.997,7.927,24.795c5.287,5.797,13.04,8.692,23.263,8.692s18.067-2.895,23.519-8.692
		c5.452-5.798,8.178-14.06,8.178-24.795v-107.372h43.718v107.111c0,16.022-3.41,29.57-10.228,40.65
		c-6.817,11.073-15.977,19.427-27.482,25.053c-11.503,5.622-24.325,8.433-38.47,8.433c-14.145,0-26.802-2.768-37.962-8.307
		c-11.163-5.537-19.983-13.89-26.46-25.053c-6.478-11.163-9.713-24.755-9.713-40.777v-107.111H2250.179z M2114.952,2986.582
		c-13.125,0-24.883-2.132-35.278-6.393c-10.398-4.257-18.703-10.563-24.925-18.912c-6.222-8.352-9.502-18.405-9.842-30.17h46.522
		c0.685,6.648,2.985,11.722,6.902,15.213c3.927,3.495,9.033,5.238,15.34,5.238c6.479,0,11.59-1.492,15.337-4.468
		c3.75-2.987,5.627-7.12,5.627-12.402c0-4.432-1.493-8.098-4.475-10.993c-2.98-2.897-6.647-5.282-10.989-7.158
		c-4.352-1.875-10.527-4.007-18.538-6.392c-11.59-3.577-21.043-7.153-28.375-10.733c-7.329-3.582-13.63-8.863-18.917-15.852
		c-5.282-6.987-7.923-16.105-7.923-27.354c0-16.701,6.048-29.778,18.152-39.241c12.1-9.458,27.86-14.187,47.292-14.187
		c19.771,0,35.701,4.728,47.806,14.187c12.094,9.463,18.572,22.625,19.427,39.497h-47.297c-0.34-5.792-2.467-10.352-6.387-13.677
		c-3.922-3.322-8.948-4.985-15.085-4.985c-5.283,0-9.543,1.408-12.78,4.218c-3.242,2.812-4.856,6.86-4.856,12.142
		c0,5.796,2.725,10.313,8.178,13.55c5.457,3.242,13.975,6.733,25.563,10.483c11.588,3.917,21.005,7.668,28.251,11.245
		c7.243,3.58,13.502,8.777,18.788,15.595c5.283,6.817,7.923,15.595,7.923,26.333c0,10.223-2.598,19.512-7.8,27.86
		c-5.192,8.353-12.737,15-22.62,19.942C2140.086,2984.111,2128.416,2986.582,2114.952,2986.582z M1957.988,2885.607
		c8.353,0,14.57-1.962,18.661-5.882c4.092-3.917,6.137-9.458,6.137-16.617c0-7.157-2.045-12.698-6.137-16.615
		c-4.092-3.922-10.308-5.878-18.661-5.878h-23.773v44.992H1957.988z M2027.267,2863.109c0,10.398-2.387,19.895-7.158,28.503
		c-4.771,8.607-12.098,15.552-21.982,20.833c-9.888,5.287-22.158,7.928-36.813,7.928h-27.1v64.417h-43.715v-179.456h70.815
		c14.315,0,26.413,2.471,36.302,7.413c9.883,4.947,17.297,11.763,22.238,20.451
		C2024.796,2841.892,2027.267,2851.861,2027.267,2863.109z M1858.799,2805.334v179.456h-43.71v-179.456H1858.799z
		 M1783.647,2805.334v179.456h-43.715v-107.622l-40.133,107.622h-35.282l-40.39-107.876v107.876h-43.713v-179.456h51.637
		l50.363,124.243l49.851-124.243H1783.647z M1485.826,2840.357v36.302h58.54v33.747h-58.54v39.368h66.213v35.017h-109.928v-179.456
		h109.928v35.023H1485.826z M1319.149,2886.117h27.098c8.013,0,14.023-1.96,18.023-5.882c4.007-3.917,6.01-9.453,6.01-16.617
		c0-6.817-2.003-12.183-6.01-16.1c-4-3.922-10.01-5.882-18.023-5.882h-27.098V2886.117z M1366.956,2984.79l-37.323-67.743h-10.483
		v67.743h-43.71v-179.456h73.37c14.145,0,26.202,2.471,36.17,7.413c9.968,4.947,17.428,11.722,22.37,20.325
		c4.937,8.607,7.412,18.193,7.412,28.757c0,11.933-3.368,22.583-10.095,31.96c-6.733,9.368-16.663,16.017-29.783,19.938
		l41.41,71.063H1366.956z M1159.379,2946.702c14.315,0,25.777-4.772,34.383-14.315c8.608-9.543,12.908-22.157,12.908-37.832
		c0-15.852-4.3-28.508-12.908-37.967c-8.607-9.458-20.068-14.187-34.383-14.187c-14.485,0-26.032,4.687-34.64,14.06
		c-8.603,9.378-12.907,22.072-12.907,38.093c0,15.85,4.303,28.502,12.907,37.96
		C1133.348,2941.974,1144.895,2946.702,1159.379,2946.702z M1159.379,2986.582c-16.872,0-32.338-3.922-46.398-11.76
		c-14.06-7.836-25.225-18.788-33.487-32.848c-8.268-14.06-12.402-29.868-12.402-47.418c0-17.557,4.133-33.316,12.402-47.297
		c8.262-13.97,19.427-24.883,33.487-32.722c14.06-7.837,29.527-11.758,46.398-11.758c16.87,0,32.338,3.922,46.398,11.758
		c14.06,7.838,25.138,18.752,33.237,32.722c8.092,13.98,12.137,29.74,12.137,47.297c0,17.55-4.087,33.358-12.27,47.418
		c-8.178,14.06-19.257,25.012-33.232,32.848C1191.675,2982.66,1176.249,2986.582,1159.379,2986.582z M2279.134,3023.7h-8.112v66.038
		h10.658v-46.602l37.455,46.602h8.019V3023.7h-10.565v46.985L2279.134,3023.7z M2191.596,3066.249h-27.922l13.962-31.417
		L2191.596,3066.249z M2201.786,3089.739h11.227l-29.623-66.038h-11.509l-29.622,66.038h11.225l6.227-13.867h35.755
		L2201.786,3089.739z M2087.172,3032.097c-6.728-6.667-14.877-10.002-24.435-10.002c-10.818,0-19.308,3.382-25.468,10.143
		c-6.167,6.76-9.247,15.142-9.247,25.143c0,4.525,0.69,8.758,2.075,12.685c1.383,3.93,3.43,7.488,6.132,10.662
		c2.707,3.175,6.335,5.693,10.895,7.55c4.558,1.852,9.765,2.778,15.613,2.778c10.313,0,18.963-3.832,25.947-11.503v-27.082h-28.21
		v9.435h18.396v13.398c-4.653,3.898-10.028,5.85-16.133,5.85c-8.05,0-14.117-2.297-18.208-6.888
		c-4.087-4.593-6.132-10.22-6.132-16.885c-0.062-7.233,2.107-13.305,6.51-18.208c4.403-4.903,10.347-7.356,17.83-7.356
		c3.147,0,6.34,0.61,9.577,1.838c3.237,1.223,5.99,2.972,8.253,5.235L2087.172,3032.097z M1913.598,3057.192
		c0-7.422,2.06-13.46,6.18-18.113c4.12-4.654,9.888-6.982,17.31-6.982c5.093,0.065,9.453,1.37,13.068,3.917
		c3.613,2.545,6.193,5.64,7.738,9.292c1.54,3.648,2.31,7.612,2.31,11.887c0,6.917-1.952,12.69-5.848,17.31
		c-3.898,4.626-9.718,6.932-17.453,6.932c-3.902,0-7.378-0.705-10.427-2.122c-3.052-1.412-5.485-3.297-7.308-5.655
		c-1.823-2.362-3.193-4.937-4.105-7.738C1914.151,3063.122,1913.664,3060.212,1913.598,3057.192z M1937.088,3022.472
		c-9.935,0-18.08,3.257-24.43,9.767c-6.355,6.51-9.53,14.797-9.53,24.86c0,4.463,0.705,8.692,2.122,12.688
		c1.418,3.993,3.463,7.593,6.133,10.8c2.673,3.208,6.212,5.77,10.615,7.692c4.398,1.913,9.368,2.878,14.905,2.878
		c5.533,0,10.498-0.932,14.902-2.788c4.408-1.857,7.942-4.384,10.615-7.592c2.675-3.208,4.72-6.842,6.133-10.895
		c1.412-4.058,2.12-8.348,2.12-12.878c0-9.559-2.923-17.688-8.773-24.388C1956.051,3025.922,1947.779,3022.539,1937.088,3022.472z
		 M1804.554,3023.7v66.038h45.373v-9.808h-34.81v-56.23H1804.554z M1740.883,3032.947c-4.658-7.422-12.865-11.132-24.623-11.132
		c-3.147,0-6.165,0.36-9.057,1.083c-2.897,0.722-5.598,1.808-8.117,3.255c-2.513,1.45-4.527,3.43-6.033,5.943
		c-1.512,2.518-2.268,5.408-2.268,8.678c0,2.707,0.487,5.112,1.465,7.219c0.973,2.106,2.202,3.822,3.68,5.14
		c1.475,1.323,3.412,2.452,5.802,3.397c2.392,0.945,4.668,1.668,6.837,2.17c2.173,0.505,4.767,0.943,7.787,1.322
		c5.282,0.69,9.415,1.838,12.405,3.445c2.987,1.602,4.48,4.072,4.48,7.403c0,2.578-0.865,4.733-2.595,6.462
		c-1.728,1.73-3.788,2.912-6.178,3.54c-2.392,0.628-5.032,0.94-7.923,0.94c-9.435,0-16.29-3.615-20.57-10.848l-7.923,5.287
		c5.41,9.997,14.878,15,28.393,15c4.91,0,9.327-0.647,13.257-1.937c3.932-1.29,7.267-3.505,10.002-6.647
		c2.737-3.146,4.102-7.078,4.102-11.797c0-3.52-0.703-6.558-2.122-9.105c-1.412-2.547-3.472-4.558-6.18-6.037
		c-2.702-1.475-5.437-2.595-8.205-3.345c-2.768-0.757-6.1-1.418-9.997-1.985c-5.222-0.751-9.203-1.79-11.94-3.113
		c-2.735-1.323-4.1-3.425-4.1-6.322c0-3.08,1.417-5.518,4.242-7.308c2.83-1.795,6.512-2.693,11.042-2.693
		c3.458,0.067,6.647,0.741,9.572,2.031c2.928,1.29,5.173,3.067,6.747,5.33L1740.883,3032.947z M1607.304,3033.325
		c4.087,0,7.2,1.208,9.34,3.628c2.137,2.423,3.208,5.271,3.208,8.542c0,3.33-1.072,6.132-3.208,8.395
		c-2.14,2.263-5.282,3.397-9.433,3.397h-20.094v-23.962H1607.304z M1632.401,3087.854l-19.72-21.982
		c6.1-0.885,10.612-3.228,13.54-7.03c2.925-3.803,4.385-8.32,4.385-13.537c0-5.91-2.06-10.988-6.18-15.235
		c-4.12-4.243-9.827-6.37-17.122-6.37c-3.397,0-8.522-0.013-15.377-0.047c-6.857-0.033-11.982-0.047-15.378-0.047v66.132h10.568
		v-22.828h13.96l20.093,22.828h12.358L1632.401,3087.854z M1501.469,3023.795v38.585c0,6.165-1.702,10.927-5.098,14.295
		c-3.397,3.365-7.795,4.885-13.21,4.573c-5.027-0.188-9.085-1.918-12.165-5.192c-3.085-3.27-4.625-7.828-4.625-13.677v-38.585
		h-10.473v38.585c0,8.933,2.599,15.884,7.785,20.848c5.192,4.97,11.683,7.55,19.478,7.733c8.367,0.317,15.252-2.027,20.665-7.025
		c5.405-5.003,8.112-12.183,8.112-21.557v-38.585H1501.469z M1338.27,3057.192c0-7.422,2.058-13.46,6.178-18.113
		c4.12-4.654,9.888-6.982,17.31-6.982c5.093,0.065,9.455,1.37,13.068,3.917c3.615,2.545,6.193,5.64,7.738,9.292
		c1.535,3.648,2.307,7.612,2.307,11.887c0,6.917-1.947,12.69-5.845,17.31c-3.902,4.626-9.718,6.932-17.452,6.932
		c-3.903,0-7.38-0.705-10.427-2.122c-3.052-1.412-5.485-3.297-7.308-5.655c-1.825-2.362-3.195-4.937-4.107-7.738
		C1338.816,3063.122,1338.334,3060.212,1338.27,3057.192z M1361.758,3022.472c-9.935,0-18.08,3.257-24.43,9.767
		c-6.353,6.51-9.528,14.797-9.528,24.86c0,4.463,0.703,8.692,2.122,12.688c1.417,3.993,3.458,7.593,6.132,10.8
		c2.675,3.208,6.213,5.77,10.612,7.692c4.403,1.913,9.373,2.878,14.91,2.878c5.531,0,10.497-0.932,14.9-2.788
		c4.408-1.857,7.942-4.384,10.617-7.592c2.673-3.208,4.715-6.842,6.132-10.895c1.413-4.058,2.122-8.348,2.122-12.878
		c0-9.559-2.925-17.688-8.773-24.388C1380.723,3025.922,1372.449,3022.539,1361.758,3022.472z M1228.658,3023.7h-12.548v0.473
		l25.47,38.49v27.075h10.568v-27.075l26.225-38.49v-0.473h-12.732l-18.775,29.15L1228.658,3023.7z M996.283,2951.049h57.265v33.741
		h-100.98v-179.456h43.715V2951.049z"/>
</g>
</svg>
